<svg width="57" height="57" viewBox="0 0 57 57" fill="none" xmlns="http://www.w3.org/2000/svg">
<path d="M27.6089 11.8985C27.9039 11.8829 28.201 11.875 28.4999 11.875C37.6816 11.875 45.1249 19.3183 45.1249 28.5C45.1249 37.6817 37.6816 45.125 28.4999 45.125C25.3486 45.125 22.402 44.2482 19.8909 42.7252C28.6584 42.2622 35.6249 35.0065 35.6249 26.1237C35.6249 20.0933 32.4141 14.8128 27.6089 11.8985Z" fill="#222222"/>
<path d="M12.4081 23.0873C12.5337 23.351 12.6308 23.6424 12.825 24.225C13.0658 24.9473 13.1861 25.3084 13.3065 25.4659C13.7818 26.0877 14.7182 26.0877 15.1935 25.4659C15.3139 25.3084 15.4342 24.9473 15.675 24.225L15.675 24.225L15.675 24.225C15.8692 23.6424 15.9663 23.351 16.0919 23.0873C16.5606 22.1034 17.3534 21.3106 18.3373 20.8419C18.601 20.7163 18.8923 20.6192 19.475 20.425L19.475 20.425C20.1973 20.1842 20.5584 20.0639 20.7159 19.9435C21.3377 19.4682 21.3377 18.5318 20.7159 18.0565C20.5584 17.9361 20.1973 17.8158 19.475 17.575L19.475 17.575C18.8924 17.3808 18.601 17.2837 18.3373 17.1581C17.3534 16.6893 16.5606 15.8966 16.0919 14.9127C15.9663 14.649 15.8692 14.3576 15.675 13.775L15.675 13.775L15.675 13.775C15.4342 13.0527 15.3139 12.6916 15.1935 12.5341C14.7182 11.9123 13.7818 11.9123 13.3065 12.5341C13.1861 12.6916 13.0658 13.0527 12.825 13.775L12.825 13.775C12.6308 14.3576 12.5337 14.649 12.4081 14.9127C11.9393 15.8966 11.1466 16.6893 10.1627 17.1581C9.89897 17.2837 9.60764 17.3808 9.025 17.575L9.02498 17.575C8.30272 17.8158 7.94158 17.9361 7.78406 18.0565C7.16225 18.5318 7.16225 19.4682 7.78406 19.9435C7.94158 20.0639 8.30272 20.1842 9.02499 20.425L9.025 20.425L9.02502 20.425C9.60765 20.6192 9.89897 20.7163 10.1627 20.8419C11.1466 21.3106 11.9393 22.1034 12.4081 23.0873Z" fill="#222222"/>
</svg>
